<mxfile host="app.diagrams.net" agent="Mozilla/5.0 (Windows NT 10.0; Win64; x64) AppleWebKit/537.36 (KHTML, like Gecko) Chrome/136.0.0.0 Safari/537.36 Edg/136.0.0.0" version="27.0.1">
  <diagram name="Page-1" id="RMWWDzC80FKMsA-51YJ7">
    <mxGraphModel grid="1" page="1" gridSize="10" guides="1" tooltips="1" connect="1" arrows="1" fold="1" pageScale="1" pageWidth="827" pageHeight="1169" math="0" shadow="0">
      <root>
        <mxCell id="0" />
        <mxCell id="1" parent="0" />
        <mxCell id="OmHejzrjm06ipVWm45O4-8" value="" style="swimlane;startSize=0;" vertex="1" parent="1">
          <mxGeometry x="480" y="60" width="470" height="890" as="geometry" />
        </mxCell>
        <mxCell id="OmHejzrjm06ipVWm45O4-10" value="Créer un travail de sauvegarde" style="ellipse;whiteSpace=wrap;html=1;" vertex="1" parent="OmHejzrjm06ipVWm45O4-8">
          <mxGeometry x="30" y="20" width="120" height="80" as="geometry" />
        </mxCell>
        <mxCell id="OmHejzrjm06ipVWm45O4-11" value="Modifier un travail de sauvegarde" style="ellipse;whiteSpace=wrap;html=1;" vertex="1" parent="OmHejzrjm06ipVWm45O4-8">
          <mxGeometry x="30" y="110" width="120" height="80" as="geometry" />
        </mxCell>
        <mxCell id="OmHejzrjm06ipVWm45O4-12" value="Supprimer un travail de sauvegarde" style="ellipse;whiteSpace=wrap;html=1;" vertex="1" parent="OmHejzrjm06ipVWm45O4-8">
          <mxGeometry x="30" y="200" width="120" height="80" as="geometry" />
        </mxCell>
        <mxCell id="OmHejzrjm06ipVWm45O4-13" value="Lancer un travail de sauvegarde" style="ellipse;whiteSpace=wrap;html=1;" vertex="1" parent="OmHejzrjm06ipVWm45O4-8">
          <mxGeometry x="30" y="397" width="120" height="80" as="geometry" />
        </mxCell>
        <mxCell id="OmHejzrjm06ipVWm45O4-14" value="Lister/Afficher les travaux de sauvegarde" style="ellipse;whiteSpace=wrap;html=1;" vertex="1" parent="OmHejzrjm06ipVWm45O4-8">
          <mxGeometry x="30" y="607" width="120" height="80" as="geometry" />
        </mxCell>
        <mxCell id="OmHejzrjm06ipVWm45O4-15" value="Lancer plusieurs travaux séquentiels" style="ellipse;whiteSpace=wrap;html=1;" vertex="1" parent="OmHejzrjm06ipVWm45O4-8">
          <mxGeometry x="30" y="512" width="120" height="80" as="geometry" />
        </mxCell>
        <mxCell id="OmHejzrjm06ipVWm45O4-19" value="Mettre à jour l&#39;état en temps réel" style="ellipse;whiteSpace=wrap;html=1;" vertex="1" parent="OmHejzrjm06ipVWm45O4-8">
          <mxGeometry x="220" y="354" width="120" height="80" as="geometry" />
        </mxCell>
        <mxCell id="OmHejzrjm06ipVWm45O4-20" value="Ecrire dans le fichier de log" style="ellipse;whiteSpace=wrap;html=1;" vertex="1" parent="OmHejzrjm06ipVWm45O4-8">
          <mxGeometry x="220" y="445" width="120" height="80" as="geometry" />
        </mxCell>
        <mxCell id="OmHejzrjm06ipVWm45O4-22" value="" style="endArrow=classic;html=1;rounded=0;dashed=1;entryX=0;entryY=0.5;entryDx=0;entryDy=0;exitX=1;exitY=0.5;exitDx=0;exitDy=0;" edge="1" parent="OmHejzrjm06ipVWm45O4-8" source="OmHejzrjm06ipVWm45O4-13" target="OmHejzrjm06ipVWm45O4-20">
          <mxGeometry width="50" height="50" relative="1" as="geometry">
            <mxPoint x="70" y="547" as="sourcePoint" />
            <mxPoint x="120" y="497" as="targetPoint" />
          </mxGeometry>
        </mxCell>
        <mxCell id="OmHejzrjm06ipVWm45O4-24" value="Inclut" style="edgeLabel;html=1;align=center;verticalAlign=middle;resizable=0;points=[];" connectable="0" vertex="1" parent="OmHejzrjm06ipVWm45O4-22">
          <mxGeometry x="-0.1965" y="-1" relative="1" as="geometry">
            <mxPoint as="offset" />
          </mxGeometry>
        </mxCell>
        <mxCell id="OmHejzrjm06ipVWm45O4-23" value="" style="endArrow=classic;html=1;rounded=0;dashed=1;entryX=0;entryY=0.5;entryDx=0;entryDy=0;exitX=1;exitY=0.5;exitDx=0;exitDy=0;" edge="1" parent="OmHejzrjm06ipVWm45O4-8" source="OmHejzrjm06ipVWm45O4-13" target="OmHejzrjm06ipVWm45O4-19">
          <mxGeometry width="50" height="50" relative="1" as="geometry">
            <mxPoint x="142" y="475" as="sourcePoint" />
            <mxPoint x="220" y="397" as="targetPoint" />
          </mxGeometry>
        </mxCell>
        <mxCell id="OmHejzrjm06ipVWm45O4-25" value="Inclut" style="edgeLabel;html=1;align=center;verticalAlign=middle;resizable=0;points=[];" connectable="0" vertex="1" parent="OmHejzrjm06ipVWm45O4-23">
          <mxGeometry x="-0.0364" y="2" relative="1" as="geometry">
            <mxPoint as="offset" />
          </mxGeometry>
        </mxCell>
        <mxCell id="OmHejzrjm06ipVWm45O4-26" value="" style="endArrow=classic;html=1;rounded=0;dashed=1;entryX=0.5;entryY=1;entryDx=0;entryDy=0;exitX=0.5;exitY=0;exitDx=0;exitDy=0;" edge="1" parent="OmHejzrjm06ipVWm45O4-8" source="OmHejzrjm06ipVWm45O4-15" target="OmHejzrjm06ipVWm45O4-13">
          <mxGeometry width="50" height="50" relative="1" as="geometry">
            <mxPoint x="160" y="447" as="sourcePoint" />
            <mxPoint x="230" y="407" as="targetPoint" />
          </mxGeometry>
        </mxCell>
        <mxCell id="OmHejzrjm06ipVWm45O4-27" value="Inclut" style="edgeLabel;html=1;align=center;verticalAlign=middle;resizable=0;points=[];" connectable="0" vertex="1" parent="OmHejzrjm06ipVWm45O4-26">
          <mxGeometry x="-0.0364" y="2" relative="1" as="geometry">
            <mxPoint as="offset" />
          </mxGeometry>
        </mxCell>
        <mxCell id="OmHejzrjm06ipVWm45O4-30" value="Sauvegarder/Mettre à jour le fichier configuration" style="ellipse;whiteSpace=wrap;html=1;" vertex="1" parent="OmHejzrjm06ipVWm45O4-8">
          <mxGeometry x="220" y="110" width="120" height="80" as="geometry" />
        </mxCell>
        <mxCell id="OmHejzrjm06ipVWm45O4-31" value="" style="endArrow=classic;html=1;rounded=0;dashed=1;entryX=0;entryY=0.5;entryDx=0;entryDy=0;exitX=1;exitY=0.5;exitDx=0;exitDy=0;" edge="1" parent="OmHejzrjm06ipVWm45O4-8" source="OmHejzrjm06ipVWm45O4-11" target="OmHejzrjm06ipVWm45O4-30">
          <mxGeometry width="50" height="50" relative="1" as="geometry">
            <mxPoint x="160" y="340" as="sourcePoint" />
            <mxPoint x="230" y="300" as="targetPoint" />
          </mxGeometry>
        </mxCell>
        <mxCell id="OmHejzrjm06ipVWm45O4-32" value="Inclut" style="edgeLabel;html=1;align=center;verticalAlign=middle;resizable=0;points=[];" connectable="0" vertex="1" parent="OmHejzrjm06ipVWm45O4-31">
          <mxGeometry x="-0.0364" y="2" relative="1" as="geometry">
            <mxPoint as="offset" />
          </mxGeometry>
        </mxCell>
        <mxCell id="OmHejzrjm06ipVWm45O4-33" value="" style="endArrow=classic;html=1;rounded=0;dashed=1;entryX=0;entryY=0.5;entryDx=0;entryDy=0;exitX=1;exitY=0.5;exitDx=0;exitDy=0;" edge="1" parent="OmHejzrjm06ipVWm45O4-8" source="OmHejzrjm06ipVWm45O4-10" target="OmHejzrjm06ipVWm45O4-30">
          <mxGeometry width="50" height="50" relative="1" as="geometry">
            <mxPoint x="160" y="160" as="sourcePoint" />
            <mxPoint x="230" y="160" as="targetPoint" />
          </mxGeometry>
        </mxCell>
        <mxCell id="OmHejzrjm06ipVWm45O4-34" value="Inclut" style="edgeLabel;html=1;align=center;verticalAlign=middle;resizable=0;points=[];" connectable="0" vertex="1" parent="OmHejzrjm06ipVWm45O4-33">
          <mxGeometry x="-0.0364" y="2" relative="1" as="geometry">
            <mxPoint as="offset" />
          </mxGeometry>
        </mxCell>
        <mxCell id="OmHejzrjm06ipVWm45O4-35" value="" style="endArrow=classic;html=1;rounded=0;dashed=1;entryX=0;entryY=0.5;entryDx=0;entryDy=0;exitX=1;exitY=0.5;exitDx=0;exitDy=0;" edge="1" parent="OmHejzrjm06ipVWm45O4-8" source="OmHejzrjm06ipVWm45O4-12" target="OmHejzrjm06ipVWm45O4-30">
          <mxGeometry width="50" height="50" relative="1" as="geometry">
            <mxPoint x="160" y="70" as="sourcePoint" />
            <mxPoint x="230" y="160" as="targetPoint" />
          </mxGeometry>
        </mxCell>
        <mxCell id="OmHejzrjm06ipVWm45O4-36" value="Inclut" style="edgeLabel;html=1;align=center;verticalAlign=middle;resizable=0;points=[];" connectable="0" vertex="1" parent="OmHejzrjm06ipVWm45O4-35">
          <mxGeometry x="-0.0364" y="2" relative="1" as="geometry">
            <mxPoint as="offset" />
          </mxGeometry>
        </mxCell>
        <mxCell id="OmHejzrjm06ipVWm45O4-16" value="Configurer la langue" style="ellipse;whiteSpace=wrap;html=1;" vertex="1" parent="OmHejzrjm06ipVWm45O4-8">
          <mxGeometry x="30" y="290" width="120" height="80" as="geometry" />
        </mxCell>
        <mxCell id="OmHejzrjm06ipVWm45O4-37" value="" style="endArrow=classic;html=1;rounded=0;dashed=1;entryX=0;entryY=0.5;entryDx=0;entryDy=0;exitX=1;exitY=0.5;exitDx=0;exitDy=0;" edge="1" parent="OmHejzrjm06ipVWm45O4-8" source="OmHejzrjm06ipVWm45O4-16" target="OmHejzrjm06ipVWm45O4-30">
          <mxGeometry width="50" height="50" relative="1" as="geometry">
            <mxPoint x="160" y="250" as="sourcePoint" />
            <mxPoint x="230" y="160" as="targetPoint" />
          </mxGeometry>
        </mxCell>
        <mxCell id="OmHejzrjm06ipVWm45O4-38" value="Inclut" style="edgeLabel;html=1;align=center;verticalAlign=middle;resizable=0;points=[];" connectable="0" vertex="1" parent="OmHejzrjm06ipVWm45O4-37">
          <mxGeometry x="-0.0364" y="2" relative="1" as="geometry">
            <mxPoint as="offset" />
          </mxGeometry>
        </mxCell>
        <mxCell id="OmHejzrjm06ipVWm45O4-9" value="User" style="shape=umlActor;verticalLabelPosition=bottom;verticalAlign=top;html=1;outlineConnect=0;" vertex="1" parent="1">
          <mxGeometry x="340" y="480" width="30" height="70" as="geometry" />
        </mxCell>
        <mxCell id="OmHejzrjm06ipVWm45O4-17" value="Afficher l&#39;état d&#39;un travail de sauvegarde" style="ellipse;whiteSpace=wrap;html=1;" vertex="1" parent="1">
          <mxGeometry x="510" y="760" width="120" height="80" as="geometry" />
        </mxCell>
        <mxCell id="OmHejzrjm06ipVWm45O4-18" value="Afficher le fichier de log des sauvegardes" style="ellipse;whiteSpace=wrap;html=1;" vertex="1" parent="1">
          <mxGeometry x="510" y="860" width="120" height="80" as="geometry" />
        </mxCell>
        <mxCell id="OmHejzrjm06ipVWm45O4-39" value="" style="endArrow=classic;html=1;rounded=0;entryX=0;entryY=0.5;entryDx=0;entryDy=0;" edge="1" parent="1" target="OmHejzrjm06ipVWm45O4-13">
          <mxGeometry width="50" height="50" relative="1" as="geometry">
            <mxPoint x="370" y="520" as="sourcePoint" />
            <mxPoint x="510" y="501.9999999999999" as="targetPoint" />
            <Array as="points">
              <mxPoint x="490" y="520" />
              <mxPoint x="490" y="497" />
            </Array>
          </mxGeometry>
        </mxCell>
        <mxCell id="OmHejzrjm06ipVWm45O4-40" value="" style="endArrow=classic;html=1;rounded=0;entryX=0;entryY=0.5;entryDx=0;entryDy=0;" edge="1" parent="1" target="OmHejzrjm06ipVWm45O4-15">
          <mxGeometry width="50" height="50" relative="1" as="geometry">
            <mxPoint x="370" y="520" as="sourcePoint" />
            <mxPoint x="530" y="550" as="targetPoint" />
            <Array as="points">
              <mxPoint x="490" y="520" />
              <mxPoint x="490" y="612" />
            </Array>
          </mxGeometry>
        </mxCell>
        <mxCell id="OmHejzrjm06ipVWm45O4-41" value="" style="endArrow=classic;html=1;rounded=0;entryX=0;entryY=0.5;entryDx=0;entryDy=0;" edge="1" parent="1" target="OmHejzrjm06ipVWm45O4-14">
          <mxGeometry width="50" height="50" relative="1" as="geometry">
            <mxPoint x="370" y="520" as="sourcePoint" />
            <mxPoint x="530" y="480" as="targetPoint" />
            <Array as="points">
              <mxPoint x="490" y="520" />
              <mxPoint x="490" y="707" />
            </Array>
          </mxGeometry>
        </mxCell>
        <mxCell id="OmHejzrjm06ipVWm45O4-42" value="" style="endArrow=classic;html=1;rounded=0;entryX=0;entryY=0.5;entryDx=0;entryDy=0;" edge="1" parent="1" target="OmHejzrjm06ipVWm45O4-18">
          <mxGeometry width="50" height="50" relative="1" as="geometry">
            <mxPoint x="370" y="520" as="sourcePoint" />
            <mxPoint x="530" y="740" as="targetPoint" />
            <Array as="points">
              <mxPoint x="490" y="520" />
              <mxPoint x="490" y="900" />
            </Array>
          </mxGeometry>
        </mxCell>
        <mxCell id="OmHejzrjm06ipVWm45O4-43" value="" style="endArrow=classic;html=1;rounded=0;entryX=0;entryY=0.5;entryDx=0;entryDy=0;" edge="1" parent="1" target="OmHejzrjm06ipVWm45O4-16">
          <mxGeometry width="50" height="50" relative="1" as="geometry">
            <mxPoint x="370" y="520" as="sourcePoint" />
            <mxPoint x="530" y="400" as="targetPoint" />
            <Array as="points">
              <mxPoint x="490" y="520" />
              <mxPoint x="490" y="390" />
            </Array>
          </mxGeometry>
        </mxCell>
        <mxCell id="OmHejzrjm06ipVWm45O4-44" value="" style="endArrow=classic;html=1;rounded=0;entryX=0;entryY=0.5;entryDx=0;entryDy=0;" edge="1" parent="1" target="OmHejzrjm06ipVWm45O4-12">
          <mxGeometry width="50" height="50" relative="1" as="geometry">
            <mxPoint x="370" y="520" as="sourcePoint" />
            <mxPoint x="530" y="490" as="targetPoint" />
            <Array as="points">
              <mxPoint x="490" y="520" />
              <mxPoint x="490" y="300" />
            </Array>
          </mxGeometry>
        </mxCell>
        <mxCell id="OmHejzrjm06ipVWm45O4-45" value="" style="endArrow=classic;html=1;rounded=0;entryX=0;entryY=0.5;entryDx=0;entryDy=0;" edge="1" parent="1" target="OmHejzrjm06ipVWm45O4-11">
          <mxGeometry width="50" height="50" relative="1" as="geometry">
            <mxPoint x="370" y="520" as="sourcePoint" />
            <mxPoint x="530" y="320" as="targetPoint" />
            <Array as="points">
              <mxPoint x="490" y="520" />
              <mxPoint x="490" y="210" />
            </Array>
          </mxGeometry>
        </mxCell>
        <mxCell id="OmHejzrjm06ipVWm45O4-46" value="" style="endArrow=classic;html=1;rounded=0;entryX=0;entryY=0.5;entryDx=0;entryDy=0;" edge="1" parent="1" target="OmHejzrjm06ipVWm45O4-10">
          <mxGeometry width="50" height="50" relative="1" as="geometry">
            <mxPoint x="370" y="520" as="sourcePoint" />
            <mxPoint x="530" y="320" as="targetPoint" />
            <Array as="points">
              <mxPoint x="490" y="520" />
              <mxPoint x="490" y="120" />
            </Array>
          </mxGeometry>
        </mxCell>
      </root>
    </mxGraphModel>
  </diagram>
</mxfile>
